<?xml version="1.0" standalone="no"?>
<!DOCTYPE svg PUBLIC "-//W3C//DTD SVG 20010904//EN"
 "http://www.w3.org/TR/2001/REC-SVG-20010904/DTD/svg10.dtd">
<svg version="1.0" xmlns="http://www.w3.org/2000/svg"
 width="1200.000000pt" height="1200.000000pt" viewBox="0 0 1200.000000 1200.000000"
 preserveAspectRatio="xMidYMid meet">
<metadata>
Created by potrace 1.14, written by Peter Selinger 2001-2017
</metadata>
<g transform="translate(0.000000,1200.000000) scale(0.100000,-0.100000)"
fill="#000000" stroke="none">
<path d="M5877 8904 c-1 -1 -36 -5 -77 -8 -41 -3 -86 -8 -100 -11 -13 -2 -42
-7 -65 -10 -142 -21 -409 -104 -550 -173 -306 -150 -571 -358 -777 -612 -70
-86 -189 -276 -243 -386 -31 -62 -61 -114 -68 -116 -6 -2 -771 -4 -1700 -3
-928 0 -1687 -3 -1687 -6 0 -4 84 -112 188 -240 l187 -234 1440 0 c1264 0
1440 -2 1438 -15 -1 -8 -4 -35 -7 -60 l-6 -45 -1020 0 c-561 1 -1020 -2 -1020
-6 0 -8 255 -331 331 -419 l47 -55 831 0 c457 0 831 -2 832 -5 0 -3 2 -14 4
-25 2 -11 5 -36 7 -55 l3 -35 -427 1 c-236 0 -428 -3 -428 -7 0 -4 84 -112
187 -240 l188 -234 305 -1 c168 -1 308 -2 312 -3 4 0 28 -43 52 -93 132 -270
295 -485 516 -683 328 -293 793 -493 1235 -532 299 -25 590 7 866 98 106 35
313 122 329 139 3 3 28 16 55 30 67 33 222 138 309 209 237 194 431 439 578
731 l53 105 310 0 309 0 153 190 c84 105 159 197 166 205 7 8 24 31 39 50 l27
35 -432 0 -432 0 2 30 c3 62 8 85 18 86 5 1 381 2 835 3 l824 1 119 145 c65
80 151 188 191 240 l74 95 -1020 0 c-561 0 -1024 2 -1028 5 -5 3 -10 30 -12
60 l-3 55 1440 0 1440 0 188 234 c103 128 187 236 187 240 0 3 -765 6 -1699 6
l-1700 0 -41 86 c-52 112 -149 273 -225 374 -72 97 -293 322 -390 397 -168
130 -369 245 -565 321 -80 31 -291 93 -345 101 -22 3 -51 8 -65 11 -74 15
-211 27 -338 29 -78 1 -143 1 -145 0z m284 -489 c90 -7 115 -11 259 -44 124
-28 334 -118 465 -199 126 -78 297 -227 410 -357 70 -81 221 -331 253 -420 5
-16 21 -60 35 -97 14 -38 23 -68 21 -68 -2 0 3 -17 11 -37 18 -46 43 -163 52
-247 10 -80 10 -325 1 -401 -10 -80 -44 -238 -65 -300 -10 -27 -18 -52 -18
-55 -3 -17 -50 -130 -76 -183 -101 -202 -268 -415 -429 -549 -25 -21 -50 -42
-57 -48 -44 -37 -209 -136 -295 -178 -93 -45 -255 -105 -316 -117 -13 -2 -32
-7 -42 -10 -32 -10 -133 -26 -205 -32 -520 -46 -999 129 -1360 495 -89 91 -83
84 -146 167 -70 92 -124 182 -178 296 -48 103 -104 262 -116 329 -3 19 -11 55
-16 80 -30 133 -33 454 -5 590 10 47 19 94 21 105 3 11 15 56 29 100 157 516
574 942 1079 1103 141 46 253 69 367 78 41 3 76 7 77 8 4 4 163 -2 244 -9z"/>
<path d="M5800 7035 c-65 -16 -145 -49 -154 -64 -4 -5 5 -33 20 -61 20 -39 31
-49 43 -44 113 48 256 64 316 34 29 -15 58 -71 49 -95 -3 -6 -50 -10 -117 -10
-212 0 -344 -78 -355 -210 -10 -128 63 -209 202 -222 84 -8 188 23 231 67 16
16 31 30 35 30 3 0 5 -18 4 -40 l-1 -40 74 0 73 0 0 238 c0 135 -5 253 -11
275 -13 49 -65 102 -126 129 -59 27 -200 33 -283 13z m262 -366 c21 -11 14
-62 -13 -101 -29 -40 -117 -78 -181 -78 -160 0 -170 144 -13 180 44 10 187 9
207 -1z"/>
<path d="M6899 3918 c-1 -2 -2 -22 -4 -45 l-2 -43 48 0 49 0 0 -214 0 -215
-47 -3 -47 -3 -2 -42 -2 -43 149 0 148 0 -2 43 -2 42 -49 5 -49 5 0 258 1 257
-94 0 c-52 0 -94 -1 -95 -2z"/>
<path d="M2605 3751 c-44 -11 -105 -42 -105 -53 0 -21 32 -69 43 -64 100 42
198 45 229 6 33 -40 24 -50 -44 -51 -115 -1 -182 -23 -228 -75 -67 -77 -19
-194 86 -210 73 -11 134 6 182 50 23 21 24 21 22 1 -5 -41 -1 -45 48 -45 l47
0 -1 157 c-1 186 -9 220 -63 258 -32 21 -53 27 -113 30 -40 2 -86 1 -103 -4z
m181 -268 c-15 -63 -100 -106 -174 -87 -27 7 -38 16 -43 36 -13 50 39 76 155
77 l68 1 -6 -27z"/>
<path d="M3304 3745 c-33 -14 -84 -60 -84 -75 0 -6 -4 -10 -8 -10 -4 0 -7 20
-6 45 l2 45 -99 0 -99 0 0 -40 0 -40 50 0 50 0 0 -135 0 -135 -50 0 -50 0 0
-45 0 -45 144 0 c155 0 153 0 152 55 -1 29 -3 30 -51 35 l-50 5 1 60 c1 94 12
132 47 165 37 34 102 48 153 32 33 -10 33 -10 48 36 9 25 14 48 11 50 -12 12
-132 10 -161 -3z"/>
<path d="M3710 3753 c-8 -3 -23 -15 -32 -27 l-18 -21 0 23 c0 20 -5 22 -50 22
l-50 0 0 -220 0 -220 49 0 49 0 0 159 c0 157 8 201 35 201 32 0 37 -24 37
-192 l0 -168 49 0 50 0 0 160 c0 157 8 200 34 200 32 0 37 -24 37 -192 l0
-168 49 0 48 0 1 158 c1 198 -8 252 -47 275 -44 26 -79 22 -112 -14 -16 -17
-29 -27 -29 -22 0 5 -9 19 -20 31 -20 21 -48 26 -80 15z"/>
<path d="M4235 3751 c-53 -14 -105 -40 -105 -51 0 -21 34 -70 45 -66 119 52
237 41 242 -24 2 -18 -4 -20 -60 -21 -114 -1 -181 -24 -227 -75 -58 -67 -31
-167 55 -200 72 -27 157 -11 213 40 23 21 24 21 22 1 -5 -41 -1 -45 44 -45 33
0 45 4 48 18 9 40 0 300 -11 335 -19 57 -75 88 -165 93 -39 1 -84 -1 -101 -5z
m181 -267 c-11 -59 -89 -103 -158 -90 -44 8 -58 18 -62 43 -9 44 46 69 152 72
l73 2 -5 -27z"/>
<path d="M4870 3753 c-36 -14 -73 -48 -86 -77 l-13 -31 -1 53 0 52 -50 0 -50
0 0 -220 0 -220 50 0 50 0 0 113 c0 61 5 129 11 151 19 67 76 106 134 92 42
-11 49 -40 51 -196 1 -80 3 -148 3 -152 1 -5 21 -8 45 -8 33 0 45 4 48 18 2 9
3 85 2 168 -2 163 -14 210 -59 240 -25 16 -111 27 -135 17z"/>
<path d="M5304 3735 c-178 -89 -156 -359 34 -423 49 -17 160 -8 208 16 62 31
68 44 42 78 -12 16 -22 30 -23 31 0 1 -23 -9 -50 -22 -61 -31 -124 -33 -175
-4 -31 18 -60 53 -60 74 0 3 83 5 184 5 l184 0 -5 38 c-17 143 -99 226 -229
231 -46 1 -70 -4 -110 -24z m176 -86 c38 -23 50 -37 50 -56 0 -10 -31 -13
-120 -13 -121 0 -133 4 -112 36 15 24 78 54 112 54 19 0 51 -10 70 -21z"/>
<path d="M6460 3749 c-13 -5 -33 -17 -42 -26 -17 -15 -18 -15 -18 5 0 20 -5
22 -49 22 l-49 0 0 -305 0 -305 49 0 49 0 0 105 0 106 28 -21 c62 -46 164 -35
221 24 94 97 84 286 -19 368 -40 31 -127 45 -170 27z m97 -99 c35 -21 63 -75
63 -122 0 -104 -104 -170 -187 -118 l-33 20 0 97 c0 54 4 103 8 108 25 36 103
44 149 15z"/>
<path d="M7480 3733 c-102 -52 -131 -130 -108 -289 1 -6 13 -29 27 -50 38 -56
119 -96 191 -93 142 6 223 87 224 224 1 141 -81 229 -221 234 -46 1 -69 -4
-113 -26z m178 -83 c85 -52 80 -199 -8 -242 -59 -30 -104 -24 -148 20 -33 33
-39 45 -41 90 -2 62 18 105 62 132 41 26 93 25 135 0z"/>
<path d="M8204 3746 c-32 -14 -71 -50 -90 -82 -8 -14 -10 -7 -9 34 l3 52 -99
0 -99 0 0 -40 0 -40 50 0 50 0 0 -135 0 -135 -50 0 -50 0 0 -45 0 -45 145 0
c122 0 145 2 146 15 6 72 7 70 -46 75 l-50 5 0 60 c0 81 12 127 42 159 41 44
108 59 167 37 23 -9 25 -7 40 36 9 26 14 48 12 50 -12 12 -134 12 -162 -1z"/>
<path d="M8596 3750 c-118 -37 -180 -164 -142 -293 35 -120 171 -185 311 -146
57 16 107 57 96 78 -30 52 -34 54 -73 32 -52 -31 -129 -38 -177 -17 -32 15
-71 59 -71 80 0 3 83 6 184 6 l184 0 -5 38 c-17 143 -89 219 -216 227 -34 2
-75 0 -91 -5z m166 -117 c50 -48 41 -53 -97 -53 l-125 0 12 25 c30 65 154 82
210 28z"/>
<path d="M9294 3745 c-32 -13 -71 -48 -90 -81 -8 -14 -10 -8 -9 34 l2 52 -99
0 -98 0 0 -40 0 -40 49 0 50 0 0 -135 1 -135 -50 0 -50 0 0 -45 0 -46 147 3
146 3 1 40 1 40 -50 5 -50 5 0 60 c-2 86 12 130 51 165 40 34 94 47 145 33
l37 -10 17 44 c10 24 14 47 11 50 -12 13 -132 11 -162 -2z"/>
<path d="M5730 3705 c0 -43 1 -45 29 -45 23 0 37 -11 71 -57 24 -31 43 -62 43
-69 0 -6 -20 -39 -44 -73 -38 -52 -48 -60 -76 -61 -32 0 -33 -1 -33 -45 l0
-45 103 0 103 0 0 43 c-1 29 -6 44 -17 47 -13 4 -12 11 11 47 l27 43 27 -40
c30 -46 31 -50 11 -50 -11 0 -15 -12 -15 -45 l0 -45 103 0 104 0 0 45 c1 44 0
45 -31 45 -27 0 -38 9 -79 66 -27 37 -44 70 -40 77 4 7 24 36 46 65 32 42 45
52 68 52 28 0 29 2 29 45 l0 45 -100 0 -100 0 0 -44 c0 -32 4 -45 15 -48 12
-2 10 -10 -11 -41 l-26 -39 -23 39 c-19 30 -21 39 -9 41 9 2 14 17 14 48 l0
44 -100 0 -100 0 0 -45z"/>
<path d="M2449 2338 c0 -73 -2 -144 -5 -158 -6 -34 -49 -70 -83 -70 -32 0 -77
31 -86 60 -6 20 -30 27 -39 11 -9 -13 15 -55 43 -76 40 -30 131 -28 165 4 37
35 46 79 46 229 0 125 -1 132 -20 132 -19 0 -20 -7 -21 -132z"/>
<path d="M3641 2428 c3 -65 1 -68 -31 -68 -20 0 -30 -5 -30 -15 0 -10 10 -15
30 -15 28 0 30 -3 31 -37 2 -140 4 -153 30 -178 33 -34 86 -42 132 -20 42 20
67 70 38 78 -12 3 -21 -5 -30 -24 -22 -51 -101 -47 -121 5 -4 13 -8 57 -8 99
l0 77 59 0 c46 0 59 3 59 15 0 12 -13 15 -61 15 -60 0 -60 0 -59 28 5 66 1 82
-21 82 -18 0 -20 -6 -18 -42z"/>
<path d="M4494 2279 l0 -191 93 4 c86 4 95 6 123 33 49 47 66 131 45 221 -22
95 -65 124 -182 124 l-79 0 0 -191z m174 145 c37 -25 54 -71 54 -143 1 -116
-40 -164 -134 -159 l-53 3 0 158 0 157 55 0 c34 0 64 -6 78 -16z"/>
<path d="M5882 2458 c3 -7 18 -15 34 -18 l29 -5 1 -158 1 -157 -32 0 c-21 0
-32 -5 -32 -15 0 -12 16 -15 84 -15 67 0 83 3 83 15 0 10 -10 15 -30 15 l-30
0 0 160 0 160 30 0 c20 0 30 5 30 15 0 12 -16 15 -86 15 -64 0 -85 -3 -82 -12z"/>
<path d="M6341 2433 c3 -69 1 -73 -31 -73 -41 0 -40 -28 1 -32 l31 -3 2 -92
c1 -86 3 -94 27 -119 18 -18 41 -28 73 -31 42 -5 48 -3 81 30 40 40 43 53 15
60 -13 3 -20 0 -20 -9 0 -21 -41 -54 -67 -54 -13 0 -34 10 -47 23 -20 20 -23
34 -25 110 l-2 87 60 0 c48 0 61 3 61 15 0 12 -13 15 -60 15 l-60 0 0 55 c0
48 -2 55 -20 55 -17 0 -20 -6 -19 -37z"/>
<path d="M7194 2280 c1 -184 2 -190 21 -190 20 0 21 5 20 155 0 85 1 155 2
155 2 0 37 -70 78 -155 67 -140 76 -155 99 -155 l26 0 0 190 c0 183 -1 190
-20 190 -23 0 -22 9 -21 -175 l1 -130 -75 153 c-70 143 -76 152 -103 152 l-28
0 0 -190z"/>
<path d="M8590 2415 c0 -54 0 -55 -30 -55 -20 0 -30 -5 -30 -15 0 -10 10 -15
30 -15 l30 0 1 -77 c1 -105 3 -114 39 -145 35 -32 75 -36 125 -12 41 19 64 69
36 77 -12 3 -21 -5 -30 -24 -9 -21 -22 -30 -48 -35 -32 -6 -40 -3 -60 20 -20
24 -23 38 -23 112 l0 84 60 0 c47 0 60 3 60 15 0 12 -13 15 -60 15 l-60 0 0
55 c0 48 -2 55 -20 55 -18 0 -20 -7 -20 -55z"/>
<path d="M9033 2455 c0 -10 10 -15 31 -15 l31 0 1 -159 0 -160 -30 -3 c-16 -2
-31 -9 -34 -15 -3 -10 18 -13 82 -13 70 0 86 3 86 15 0 10 -10 15 -30 15 -22
0 -30 5 -31 18 0 9 -1 88 -1 175 l0 157 -52 0 c-40 0 -53 -4 -53 -15z"/>
<path d="M3178 2348 c-32 -18 -38 -27 -38 -54 0 -45 34 -69 118 -84 95 -16
122 -48 73 -88 -22 -17 -97 -12 -148 9 -37 16 -42 16 -47 2 -4 -9 -5 -17 -4
-18 35 -28 149 -43 199 -26 41 13 69 55 62 93 -6 31 -53 57 -117 66 -51 6 -96
28 -96 46 0 39 92 58 153 33 32 -14 36 -14 41 0 4 9 5 17 4 17 -55 31 -151 33
-200 4z"/>
<path d="M4995 2351 c-48 -29 -69 -68 -68 -128 1 -89 58 -145 143 -142 82 4
130 48 138 127 12 119 -115 203 -213 143z m134 -37 c36 -30 47 -75 32 -130
-20 -75 -118 -99 -167 -41 -25 30 -28 40 -25 97 5 89 94 130 160 74z"/>
<path d="M7700 2352 c-68 -33 -92 -151 -44 -215 47 -63 144 -74 214 -25 17 13
21 21 13 29 -7 7 -20 4 -44 -10 -52 -32 -94 -28 -135 13 -59 59 -51 66 85 66
l119 0 -5 33 c-16 105 -110 156 -203 109z m124 -34 c14 -13 28 -35 32 -50 l6
-28 -97 0 c-95 0 -96 0 -90 23 21 68 101 98 149 55z"/>
<path d="M8179 2366 c-4 -4 -41 -12 -71 -15 -10 -1 -10 -13 0 -28 6 -10 17 -9
49 3 46 18 103 13 123 -10 17 -22 23 -66 8 -66 -173 -5 -224 -34 -204 -116 14
-54 127 -69 187 -25 29 21 29 21 29 1 0 -13 7 -20 20 -20 20 0 21 5 19 110
l-1 110 -32 28 c-24 20 -44 29 -77 30 -25 2 -47 1 -50 -2z m121 -155 c0 -73
-98 -127 -158 -85 -36 25 -22 68 28 87 24 9 130 8 130 -2z"/>
<path d="M2695 2258 c2 -123 7 -144 45 -163 54 -28 124 -9 149 39 10 19 11 17
8 -11 -3 -29 -1 -33 20 -33 23 0 23 0 23 135 0 125 -1 135 -19 135 -16 0 -19
-10 -23 -90 -3 -71 -9 -96 -25 -118 -37 -50 -114 -56 -129 -9 -4 12 -8 65 -8
117 -1 88 -3 95 -21 98 -20 3 -21 -2 -20 -100z"/>
<path d="M9481 2224 c54 -126 58 -141 48 -171 -11 -33 -33 -45 -73 -40 -27 3
-31 -20 -6 -28 34 -11 89 4 104 28 8 12 42 85 75 162 34 77 66 148 71 157 14
25 13 28 -14 28 -17 0 -27 -8 -36 -32 -7 -18 -18 -46 -25 -63 -8 -16 -21 -50
-31 -75 -9 -25 -20 -48 -24 -53 -3 -4 -27 43 -52 105 -40 99 -49 113 -72 116
-25 3 -25 2 35 -134z"/>
</g>
</svg>
